HIERARCHY
ROOT SpineBase
{
  OFFSET 0.000000 0.000000 0.000000
  CHANNELS 6 Xposition Yposition Zposition Zrotation Xrotation Yrotation
  JOINT SpineMid
  {
    OFFSET 0.000000 24.782274 0.000000
    CHANNELS 3 Zrotation Xrotation Yrotation
    JOINT SpineShoulder
    {
      OFFSET -0.151248 18.468238 -0.566712
      CHANNELS 3 Zrotation Xrotation Yrotation
      JOINT Neck
      {
        OFFSET -0.122035 6.136049 -0.450326
        CHANNELS 3 Zrotation Xrotation Yrotation
        JOINT Head
        {
          OFFSET 0.465009 9.553172 3.960562
          CHANNELS 3 Zrotation Xrotation Yrotation
          End Site
          {
            OFFSET 0 0 0
          }
        }
      }
      JOINT ShoulderLeft
      {
        OFFSET -4.325006 -4.552526 12.051616
        CHANNELS 3 Zrotation Xrotation Yrotation
        JOINT ElbowLeft
        {
          OFFSET -1.958915 -25.726608 2.947511
          CHANNELS 3 Zrotation Xrotation Yrotation
          JOINT WristLeft
          {
            OFFSET -1.209187 -22.345392 3.397147
            CHANNELS 3 Zrotation Xrotation Yrotation
            JOINT HandLeft
            {
              OFFSET -1.748701 -6.801340 -1.928502
              CHANNELS 3 Zrotation Xrotation Yrotation
              JOINT HandTipLeft
              {
                OFFSET 1.779183 -6.254584 0.305820
                CHANNELS 3 Zrotation Xrotation Yrotation
                End Site
                {
                  OFFSET 0 0 0
                }
              }
              JOINT ThumbLeft
              {
                OFFSET -3.160648 -0.172795 -1.066830
                CHANNELS 3 Zrotation Xrotation Yrotation
                End Site
                {
                  OFFSET 0 0 0
                }
              }
            }
          }
        }
      }
      JOINT ShoulderRight
      {
        OFFSET 4.519943 -2.100725 -10.189238
        CHANNELS 3 Zrotation Xrotation Yrotation
        JOINT ElbowRight
        {
          OFFSET -0.126086 -22.041322 -5.292586
          CHANNELS 3 Zrotation Xrotation Yrotation
          JOINT WristRight
          {
            OFFSET -6.164273 -20.707392 -3.169748
            CHANNELS 3 Zrotation Xrotation Yrotation
            JOINT HandRight
            {
              OFFSET -2.136010 -8.374117 1.181751
              CHANNELS 3 Zrotation Xrotation Yrotation
              JOINT HandTipRight
              {
                OFFSET -5.068747 -6.156879 -1.416064
                CHANNELS 3 Zrotation Xrotation Yrotation
                End Site
                {
                  OFFSET 0 0 0
                }
              }
              JOINT ThumbRight
              {
                OFFSET 4.797667 -0.790263 -0.111673
                CHANNELS 3 Zrotation Xrotation Yrotation
                End Site
                {
                  OFFSET 0 0 0
                }
              }
            }
          }
        }
      }
    }
  }
  JOINT HipLeft
  {
    OFFSET -2.529007 -0.004921 1.129659
    CHANNELS 3 Zrotation Xrotation Yrotation
    JOINT KneeLeft
    {
      OFFSET 4.824051 -41.671392 3.688952
      CHANNELS 3 Zrotation Xrotation Yrotation
      JOINT AnkleLeft
      {
        OFFSET 8.385695 -31.184930 -3.786347
        CHANNELS 3 Zrotation Xrotation Yrotation
        JOINT FootLeft
        {
          OFFSET -9.628418 -2.567067 -6.400640
          CHANNELS 3 Zrotation Xrotation Yrotation
          End Site
          {
            OFFSET 0 0 0
          }
        }
      }
    }
  }
  JOINT HipRight
  {
    OFFSET 1.135918 1.681781 -6.720704
    CHANNELS 3 Zrotation Xrotation Yrotation
    JOINT KneeRight
    {
      OFFSET 6.349803 -39.007304 -3.893173
      CHANNELS 3 Zrotation Xrotation Yrotation
      JOINT AnkleRight
      {
        OFFSET 5.990879 -32.633175 3.322267
        CHANNELS 3 Zrotation Xrotation Yrotation
        JOINT FootRight
        {
          OFFSET -6.490992 -4.220901 -3.444784
          CHANNELS 3 Zrotation Xrotation Yrotation
          End Site
          {
            OFFSET 0 0 0
          }
        }
      }
    }
  }
}
MOTION
Frames: 5
Frame Time: 0.033333
77.774799 79.505318 315.388105 -1.426434 -4.828544 62.049939 -0.243257 -0.130229 -62.199228 -0.016862 -0.051859 -0.122166 6.462848 15.989089 -3.262077 0.000000 0.000000 0.000000 1.423730 5.161473 0.143479 -0.520135 3.259024 -0.241669 7.437965 2.445477 -3.112236 -14.416493 -1.417285 3.652720 0.000000 0.000000 0.000000 0.000000 0.000000 0.000000 4.447606 6.205233 -0.883235 -2.001828 -3.985060 1.469215 5.222155 2.860565 -0.141136 5.190948 2.260450 -6.044713 0.000000 0.000000 0.000000 0.000000 0.000000 0.000000 4.370259 -0.479931 -62.195776 0.213224 6.820057 1.318324 56.552756 -23.937606 48.779864 0.000000 0.000000 0.000000 5.966542 0.294226 -62.180253 -1.273358 -1.525393 -0.183167 -10.698759 10.818236 -4.172835 0.000000 0.000000 0.000000
77.785228 79.504560 315.414313 -1.400146 -4.894335 62.097245 -0.251187 -0.133895 -62.246092 -0.006274 -0.074789 -0.122327 6.359915 15.941945 -3.220712 0.000000 0.000000 0.000000 1.386829 5.258793 0.143203 -0.155808 2.725210 -0.168075 7.298779 3.263300 -3.430462 -13.435568 -3.678594 3.166379 0.000000 0.000000 0.000000 0.000000 0.000000 0.000000 4.650590 6.721282 -0.983111 -2.825630 -4.853850 1.714063 6.639685 2.892599 -0.238670 0.973156 1.634256 -4.274151 0.000000 0.000000 0.000000 0.000000 0.000000 0.000000 4.490019 -0.389052 -62.235416 -0.251879 5.093701 0.973387 22.824358 -18.626148 13.605309 0.000000 0.000000 0.000000 6.039972 0.408196 -62.218341 -1.180976 -1.576192 -0.190474 -10.708655 10.846000 -4.243803 0.000000 0.000000 0.000000
77.806412 79.505131 315.424729 -1.373714 -4.953232 62.079293 -0.272714 -0.124857 -62.227397 -0.009182 -0.087776 -0.123315 6.520821 15.961378 -3.317585 0.000000 0.000000 0.000000 1.381146 5.345471 0.143737 0.339023 2.154259 -0.071637 6.094722 4.639613 -3.648452 -13.564577 -6.087172 2.364464 0.000000 0.000000 0.000000 0.000000 0.000000 0.000000 4.805826 7.060607 -1.050998 -3.600677 -5.507983 1.918527 7.634682 3.455311 -0.557675 -0.671420 0.562227 -3.084563 0.000000 0.000000 0.000000 0.000000 0.000000 0.000000 4.547138 -0.307652 -62.217476 -0.639216 3.803293 0.710517 17.616108 -14.581284 6.888228 0.000000 0.000000 0.000000 6.098526 0.540015 -62.189792 -1.040611 -1.662838 -0.201898 -10.759539 10.901568 -4.289715 0.000000 0.000000 0.000000
77.813929 79.509772 315.426103 -1.388497 -5.021426 61.863057 -0.287175 -0.109781 -62.013477 -0.021182 -0.090574 -0.126141 6.734841 16.068193 -3.420433 0.000000 0.000000 0.000000 1.428579 5.422303 0.145587 0.527458 0.774368 0.034765 6.979806 5.131938 -3.988555 -15.966253 -4.897898 2.511332 0.000000 0.000000 0.000000 0.000000 0.000000 0.000000 4.933567 7.249218 -1.085214 -4.133193 -5.985441 2.077337 8.599655 4.141224 -0.883544 -2.950290 0.194076 -2.556918 0.000000 0.000000 0.000000 0.000000 0.000000 0.000000 4.612740 -0.286689 -62.004784 -0.957720 2.784315 0.486825 12.566523 -10.231544 2.648942 0.000000 0.000000 0.000000 6.146078 0.652826 -61.968530 -0.830639 -1.621275 -0.183644 -10.829177 10.960675 -4.508533 0.000000 0.000000 0.000000
77.819489 79.500918 315.404472 -1.403420 -5.061309 61.573271 -0.311051 -0.092599 -61.725499 -0.031941 -0.097324 -0.129112 6.812397 15.938728 -3.422734 0.000000 0.000000 0.000000 1.481772 5.481852 0.147398 0.839931 0.068374 0.123555 7.398215 3.533041 -3.675290 -17.805339 -0.929320 3.161145 0.000000 0.000000 0.000000 0.000000 0.000000 0.000000 4.995230 7.099892 -1.082894 -4.422406 -5.970096 2.166566 8.624290 4.952189 -1.248275 -3.621333 -1.339748 -1.328217 0.000000 0.000000 0.000000 0.000000 0.000000 0.000000 4.586329 -0.325550 -61.725959 -1.153009 2.433796 0.403450 8.318169 -6.891740 1.165487 0.000000 0.000000 0.000000 6.166783 0.734240 -61.676818 -0.724474 -1.663719 -0.188630 -10.877070 11.026116 -4.544276 0.000000 0.000000 0.000000
